<?xml version="1.0" encoding="UTF-8" standalone="no"?>
<svg
   xmlns:dc="http://purl.org/dc/elements/1.1/"
   xmlns:cc="http://creativecommons.org/ns#"
   xmlns:rdf="http://www.w3.org/1999/02/22-rdf-syntax-ns#"
   xmlns:svg="http://www.w3.org/2000/svg"
   xmlns="http://www.w3.org/2000/svg"
   xmlns:xlink="http://www.w3.org/1999/xlink"
   xmlns:sodipodi="http://sodipodi.sourceforge.net/DTD/sodipodi-0.dtd"
   xmlns:inkscape="http://www.inkscape.org/namespaces/inkscape"
   version="1.1"
   id="Layer_1"
   x="0px"
   y="0px"
   width="178.5px"
   height="104px"
   viewBox="-432 743.3 178.5 104"
   enable-background="new -432 743.3 178.5 104"
   xml:space="preserve"
   sodipodi:docname="basedpadcopy.svg"
   inkscape:export-filename="/Users/Nathan/Desktop/ohhno.png"
   inkscape:export-xdpi="96"
   inkscape:export-ydpi="96"
   inkscape:version="1.0.1 (c497b03c, 2020-09-10)"><metadata
   id="metadata890"><rdf:RDF><cc:Work
       rdf:about=""><dc:format>image/svg+xml</dc:format><dc:type
         rdf:resource="http://purl.org/dc/dcmitype/StillImage" /></cc:Work></rdf:RDF></metadata><defs
   id="defs888"><linearGradient
   inkscape:collect="always"
   id="linearGradient1524"><stop
     style="stop-color:#00ffff;stop-opacity:1;"
     offset="0"
     id="stop1520" /><stop
     style="stop-color:#0000ff;stop-opacity:1"
     offset="1"
     id="stop1522" /></linearGradient><linearGradient
   inkscape:collect="always"
   xlink:href="#linearGradient1524"
   id="linearGradient1526"
   x1="-376.89999"
   y1="743.29999"
   x2="-376.89999"
   y2="794.2099"
   gradientUnits="userSpaceOnUse" /><linearGradient
   inkscape:collect="always"
   xlink:href="#linearGradient1524"
   id="linearGradient1549"
   x1="-306.29013"
   y1="743.28168"
   x2="-306.29013"
   y2="778.71832"
   gradientUnits="userSpaceOnUse" /><linearGradient
   inkscape:collect="always"
   xlink:href="#linearGradient1524"
   id="linearGradient1557"
   x1="-414.29999"
   y1="743.29999"
   x2="-414.29999"
   y2="794.20001"
   gradientUnits="userSpaceOnUse" /><linearGradient
   inkscape:collect="always"
   xlink:href="#linearGradient1524"
   id="linearGradient1559"
   gradientUnits="userSpaceOnUse"
   x1="-306.29013"
   y1="743.28168"
   x2="-306.29013"
   y2="778.71832" /><linearGradient
   inkscape:collect="always"
   xlink:href="#linearGradient1524"
   id="linearGradient1561"
   gradientUnits="userSpaceOnUse"
   x1="-306.29013"
   y1="743.28168"
   x2="-306.29013"
   y2="778.71832" />
	
	
	
	
</defs><sodipodi:namedview
   pagecolor="#ffffff"
   bordercolor="#666666"
   borderopacity="1"
   objecttolerance="10"
   gridtolerance="10"
   guidetolerance="10"
   inkscape:pageopacity="0"
   inkscape:pageshadow="2"
   inkscape:window-width="1371"
   inkscape:window-height="880"
   id="namedview886"
   showgrid="false"
   inkscape:object-paths="true"
   inkscape:snap-intersection-paths="true"
   inkscape:snap-smooth-nodes="true"
   inkscape:snap-midpoints="true"
   inkscape:snap-object-midpoints="true"
   inkscape:snap-center="true"
   inkscape:snap-page="true"
   inkscape:snap-bbox="true"
   inkscape:bbox-paths="true"
   inkscape:bbox-nodes="true"
   inkscape:snap-bbox-edge-midpoints="true"
   inkscape:snap-bbox-midpoints="true"
   inkscape:zoom="3.7422969"
   inkscape:cx="89.25"
   inkscape:cy="52"
   inkscape:window-x="2296"
   inkscape:window-y="101"
   inkscape:window-maximized="0"
   inkscape:current-layer="Layer_1" />
<g
   id="g837">
		
		<path
   opacity="0.25"
   enable-background="new    "
   d="m -307.5,763.9 c 1.4,-2 1.2,-2.9 1.2,-2.9 0,0 0.2,-0.9 -1.2,-2.9 -0.9,-1.3 -6.9,-6.6 -11.2,-10.3 -2.1,3.9 -3.4,8.4 -3.4,13.2 0,4.8 1.2,9.3 3.4,13.2 4.3,-3.7 10.3,-9 11.2,-10.3 z"
   id="path835" />
	</g><g
   id="g843">
		<path
   fill="#1A1A1A"
   d="m -379.8,793 c 2,1.4 2.9,1.2 2.9,1.2 0,0 0.9,0.2 2.9,-1.2 2,-1.4 13.6,-15 14,-15.7 0.4,-0.7 2.2,-28.5 -1.3,-31.4 -3.5,-2.9 -15.6,-2.6 -15.6,-2.6 0,0 -12.1,-0.2 -15.6,2.6 -3.5,2.8 -1.7,30.7 -1.3,31.4 0.4,0.7 12,14.3 14,15.7 z"
   id="path839"
   style="fill:url(#linearGradient1526);fill-opacity:1" />
		
	</g><g
   id="g849">
		<g
   id="g1541"
   style="fill:url(#linearGradient1549);fill-opacity:1"><path
     fill="#1A1A1A"
     d="m -307.5,763.9 c 1.4,-2 1.2,-2.9 1.2,-2.9 0,0 0.2,-0.9 -1.2,-2.9 -1.4,-2 -15,-13.6 -15.7,-14 -0.7,-0.4 -28.5,-2.2 -31.4,1.3 -2.9,3.5 -2.6,15.6 -2.6,15.6 0,0 -0.3,12.1 2.6,15.6 2.9,3.5 30.7,1.7 31.4,1.3 0.7,-0.4 14.3,-12 15.7,-14 z"
     id="path833"
     style="fill:url(#linearGradient1559);fill-opacity:1" /><path
     fill="#1A1A1A"
     d="m -256.1,745.5 c -2.9,-3.5 -30.7,-1.7 -31.4,-1.3 -0.7,0.4 -14.3,12 -15.7,14 -1.4,2 -1.2,2.9 -1.2,2.9 0,0 -0.2,0.9 1.2,2.9 1.4,2 15,13.6 15.7,14 0.7,0.4 28.5,2.2 31.4,-1.3 2.9,-3.5 2.6,-15.6 2.6,-15.6 0,0 0.3,-12.1 -2.6,-15.6 z"
     id="path845"
     style="fill:url(#linearGradient1561);fill-opacity:1" /></g>
		
	</g><g
   id="g855">
		<path
   fill="#1A1A1A"
   d="m -411.4,744.5 c -2,-1.4 -2.9,-1.2 -2.9,-1.2 0,0 -0.9,-0.2 -2.9,1.2 -2,1.4 -13.6,15 -14,15.7 -0.4,0.7 -2.2,28.5 1.3,31.4 3.5,2.9 15.6,2.6 15.6,2.6 0,0 12.1,0.3 15.6,-2.6 3.5,-2.9 1.7,-30.7 1.3,-31.4 -0.4,-0.7 -12,-14.3 -14,-15.7 z"
   id="path851"
   style="fill:url(#linearGradient1557);fill-opacity:1" />
		
	</g>
<g
   id="g883">
	<g
   id="g863">
		<path
   fill="#E6E6E6"
   d="M-307.5,816.9c1.4-2,1.2-2.9,1.2-2.9s0.2-0.9-1.2-2.9s-15-13.6-15.7-14c-0.7-0.4-28.5-2.2-31.4,1.3    s-2.6,15.6-2.6,15.6s-0.3,12.1,2.6,15.6c2.9,3.5,30.7,1.7,31.4,1.3S-308.9,818.9-307.5,816.9z"
   id="path859" />
		<path
   opacity="0.25"
   fill="#FFFFFF"
   enable-background="new    "
   d="M-307.5,816.9c1.4-2,1.2-2.9,1.2-2.9s0.2-0.9-1.2-2.9    c-0.9-1.3-6.9-6.6-11.2-10.3c-2.1,3.9-3.4,8.4-3.4,13.2s1.2,9.3,3.4,13.2C-314.4,823.5-308.4,818.2-307.5,816.9z"
   id="path861" />
	</g>
	<g
   id="g869">
		<path
   fill="#E6E6E6"
   d="M-379.8,846c2,1.4,2.9,1.2,2.9,1.2s0.9,0.2,2.9-1.2s13.6-15,14-15.7s2.2-28.5-1.3-31.4    c-3.5-2.9-15.6-2.6-15.6-2.6s-12.1-0.2-15.6,2.6s-1.7,30.7-1.3,31.4C-393.4,831-381.8,844.6-379.8,846z"
   id="path865" />
		<path
   opacity="0.25"
   fill="#FFFFFF"
   enable-background="new    "
   d="M-379.8,846c2,1.4,2.9,1.2,2.9,1.2s0.9,0.2,2.9-1.2    c1.3-0.9,6.6-6.9,10.3-11.2c-3.9-2.1-8.4-3.4-13.2-3.4c-4.8,0-9.3,1.2-13.2,3.4C-386.4,839.1-381.1,845.1-379.8,846z"
   id="path867" />
	</g>
	<g
   id="g875">
		<path
   fill="#E6E6E6"
   d="M-256.1,798.4c-2.9-3.5-30.7-1.7-31.4-1.3c-0.7,0.4-14.3,12-15.7,14c-1.4,2-1.2,2.9-1.2,2.9    s-0.2,0.9,1.2,2.9s15,13.6,15.7,14c0.7,0.4,28.5,2.2,31.4-1.3c2.9-3.5,2.6-15.6,2.6-15.6S-253.2,801.9-256.1,798.4z"
   id="path871" />
		<path
   opacity="0.25"
   fill="#FFFFFF"
   enable-background="new    "
   d="M-291.9,800.9c-4.3,3.7-10.3,9-11.2,10.3    c-1.4,2-1.2,2.9-1.2,2.9s-0.2,0.9,1.2,2.9c0.9,1.3,6.9,6.6,11.2,10.3c2.1-3.9,3.4-8.4,3.4-13.2    C-288.5,809.3-289.8,804.8-291.9,800.9z"
   id="path873" />
	</g>
	<g
   id="g881">
		<path
   fill="#E6E6E6"
   d="M-411.4,797.5c-2-1.4-2.9-1.2-2.9-1.2s-0.9-0.2-2.9,1.2c-2,1.4-13.6,15-14,15.7s-2.2,28.5,1.3,31.4    c3.5,2.9,15.6,2.6,15.6,2.6s12.1,0.3,15.6-2.6c3.5-2.9,1.7-30.7,1.3-31.4C-397.8,812.5-409.4,798.9-411.4,797.5z"
   id="path877" />
		<path
   opacity="0.25"
   fill="#FFFFFF"
   enable-background="new    "
   d="M-411.4,797.5c-2-1.4-2.9-1.2-2.9-1.2s-0.9-0.2-2.9,1.2    c-1.3,0.9-6.6,6.9-10.3,11.2c3.9,2.1,8.4,3.4,13.2,3.4c4.8,0,9.3-1.2,13.2-3.4C-404.8,804.4-410.1,798.4-411.4,797.5z"
   id="path879" />
	</g>
</g>
</svg>
